<?xml version="1.0" standalone="no"?>
<!DOCTYPE svg PUBLIC "-//W3C//DTD SVG 20010904//EN"
 "http://www.w3.org/TR/2001/REC-SVG-20010904/DTD/svg10.dtd">
<svg version="1.0" xmlns="http://www.w3.org/2000/svg"
 width="512.000000pt" height="512.000000pt" viewBox="0 0 512.000000 512.000000"
 preserveAspectRatio="xMidYMid meet">
<metadata>
Created by potrace 1.11, written by Peter Selinger 2001-2013
</metadata>
<g transform="translate(0.000000,512.000000) scale(0.100000,-0.100000)"
fill="#000000" stroke="none">
<path d="M932 5104 c-237 -40 -492 -181 -644 -357 -84 -96 -112 -137 -102
-147 13 -12 1676 -1101 1691 -1107 11 -4 13 154 13 811 l0 816 -437 -1 c-324
-1 -460 -5 -521 -15z"/>
<path d="M2150 4045 l0 -1075 -1075 0 -1075 0 0 -410 0 -410 1075 0 1075 0 0
-1075 0 -1075 410 0 410 0 0 1075 0 1075 1075 0 1075 0 0 410 0 410 -1075 0
-1075 0 0 1075 0 1075 -410 0 -410 0 0 -1075z"/>
<path d="M3230 4304 c0 -657 2 -815 13 -811 15 6 1678 1095 1691 1107 19 19
-125 185 -235 273 -91 73 -239 154 -350 191 -148 49 -227 56 -691 56 l-428 0
0 -816z"/>
<path d="M4150 3829 c-492 -319 -899 -585 -904 -590 -6 -5 86 -9 235 -9 l244
0 684 445 c376 244 689 449 694 454 13 13 -5 116 -36 214 l-22 67 -895 -581z"/>
<path d="M26 4243 c-12 -41 -26 -153 -26 -215 l0 -66 563 -366 564 -366 243 0
c149 0 240 4 235 9 -9 9 -1456 949 -1537 999 -34 21 -37 21 -42 5z"/>
<path d="M0 3490 l0 -260 397 0 c236 0 393 4 388 9 -13 12 -775 511 -781 511
-2 0 -4 -117 -4 -260z"/>
<path d="M4723 3497 c-210 -139 -385 -255 -389 -259 -4 -5 171 -8 389 -8 l397
0 0 260 c0 143 -3 260 -7 259 -5 0 -180 -114 -390 -252z"/>
<path d="M0 1630 c0 -143 2 -260 4 -260 6 0 768 499 780 511 6 5 -151 9 -387
9 l-397 0 0 -260z"/>
<path d="M697 1442 l-689 -447 6 -48 c6 -53 42 -195 55 -216 7 -11 214 119
893 559 485 315 890 579 898 586 12 12 -23 14 -230 13 l-245 0 -688 -447z"/>
<path d="M3456 1881 c34 -33 1619 -1050 1625 -1044 13 13 40 189 37 240 l-3
47 -590 383 -590 383 -244 0 c-145 0 -241 -4 -235 -9z"/>
<path d="M4336 1881 c12 -12 774 -511 780 -511 2 0 4 117 4 260 l0 260 -397 0
c-236 0 -393 -4 -387 -9z"/>
<path d="M1035 1079 c-462 -302 -844 -554 -849 -559 -19 -19 125 -185 235
-273 91 -73 239 -154 350 -191 148 -49 227 -56 692 -56 l427 0 0 815 c0 448
-3 815 -7 815 -5 0 -386 -248 -848 -551z"/>
<path d="M3230 816 l0 -816 428 0 c464 0 543 7 691 56 111 37 259 118 350 191
110 88 254 254 235 273 -13 12 -1676 1101 -1691 1107 -11 4 -13 -154 -13 -811z"/>
</g>
</svg>
